<svg xmlns="http://www.w3.org/2000/svg" width="277.599" height="28" viewBox="0 0 277.599 28"><defs><style>.a{fill:#fff;}</style></defs><g transform="translate(-1186.7 -57)"><g transform="translate(1034.972 -130.768)"><rect class="a" width="4.453" height="14.487" transform="translate(168.208 200.541)"/><path class="a" d="M187.908,203.806h4.231v11.222H196.6V203.806H200.9v-3.266H187.908Z"/><path class="a" d="M207.448,209.354H213.4v-3.14h-5.956v-2.493h6.668v-3.181H203v14.487h11.117v-3.18h-6.668Z"/><path class="a" d="M161.6,200.541l-5.148,7.243,5.148,7.244h4.873l-5.157-7.244,5.157-7.243Z"/><path class="a" d="M156.129,200.54h-4.4v14.489h4.4Z"/><path class="a" d="M221.653,200.54h-5.486v14.487h4.4V203.464h1.168c1.673,0,2.072.73,2.072,1.8,0,1.247-.351,2.022-2.072,2.022h-1.168l1.561,2.929c5.663-.092,6.082-3.522,6.082-5.036C228.215,203.7,227.533,200.54,221.653,200.54Z"/><path class="a" d="M151.728,191.872v3.807a180.271,180.271,0,0,1,76.486,0v-3.807a180.237,180.237,0,0,0-76.486,0Z"/><path class="a" d="M182.41,206.258c-2.093-.688-2.978-.989-2.978-1.72,0-.646.739-1.074,2.091-1.074a11.3,11.3,0,0,1,4.46.818v-3.251a11.965,11.965,0,0,0-4.411-.728c-4.182,0-6.667,1.979-6.667,4.537,0,2.171,1.871,3.526,4.676,4.384,1.868.56,2.606.969,2.606,1.657,0,.731-.738,1.2-2.262,1.2a12.134,12.134,0,0,1-4.861-.9v3.3a18.456,18.456,0,0,0,4.59.787c4.846,0,7.062-2.129,7.062-4.625C186.715,208.623,185.386,207.2,182.41,206.258Z"/><path class="a" d="M285.568,202.112v-4.468c0-.145-.179-.18-.178-.18s-2.042-.182-2.569-.228v11.205l-.062.019a11.436,11.436,0,0,1-3.123.395h-3.491v-5.673c0-.133-.164-.165-.161-.165l-2.412-.212v6.05h-2.523c.1.346.381,1.267.381,1.267.03.091.075.22.461.22H279.5a8.549,8.549,0,0,0,3.194-.611l.123-.053v5.372h2.747V203.59h2.945v-1.478h-2.945Z"/><path class="a" d="M266.762,204.158l.107-.141a5.828,5.828,0,0,0,.7-2.818V197.33H255.212c.1.346.378,1.267.378,1.267.03.084.074.213.461.213l8.749,0v2.459a8.857,8.857,0,0,1-.354,2.836l-.021.057H253.2l.377,1.267c.03.085.078.214.464.214l5.934,0V208.7h-4.834c.1.347.378,1.267.378,1.267.031.085.076.212.461.212l8.772,0v4.871h2.769V208.7h-4.778v-3.067h6.936v-1.477Z"/><path class="a" d="M304.307,200.9v-3.277c0-.148-.182-.182-.181-.182l-2.589-.231v10.277h2.77v-5.089h2.943v-1.5h-2.943Z"/><path class="a" d="M299.136,203.526a3.664,3.664,0,0,0-1.452-2.867l-.193-.155h2.322v-1.435h-3.731v-1.734c0-.145-.18-.181-.179-.181l-2.59-.229v2.144h-3.7c.1.339.364,1.227.364,1.227.033.085.074.206.448.206l.411,0H291.9l-.188.153a3.759,3.759,0,0,0-1.43,2.869,4.455,4.455,0,0,0,8.855,0Zm-6.239,0c0-1.392.83-2.565,1.812-2.565s1.81,1.173,1.81,2.565c0,1.428-.811,2.59-1.81,2.59C293.727,206.115,292.9,204.929,292.9,203.526Z"/><path class="a" d="M291.933,210.117c.03.09.075.213.459.213l.618,0h8.526v4.7h2.77v-6.173H291.554C291.658,209.2,291.933,210.117,291.933,210.117Z"/><path class="a" d="M419.229,204.372c2.434,0,4.341-1.585,4.341-3.609,0-2-1.948-3.63-4.341-3.63s-4.362,1.629-4.362,3.63C414.867,202.787,416.784,204.372,419.229,204.372Zm0-5.825c.943,0,1.681.973,1.681,2.216s-.739,2.219-1.681,2.219-1.7-.974-1.7-2.219S418.277,198.547,419.229,198.547Z"/><path class="a" d="M244.839,203.831a3.792,3.792,0,0,0-1.623-3.039l-.214-.16h2.47v-1.477h-3.731v-1.732c0-.146-.179-.181-.179-.181s-2.06-.185-2.59-.229v2.143h-3.73v1.477h2.493l-.215.16a3.788,3.788,0,0,0-1.624,3.039,4.5,4.5,0,0,0,8.942,0Zm-6.325,0c0-1.4.866-2.632,1.855-2.632,1.006,0,1.855,1.2,1.855,2.632s-.849,2.654-1.855,2.654C239.38,206.484,238.514,205.244,238.514,203.831Z"/><path class="a" d="M333.673,201.423l.077-.162.081.161c.812,1.616,4.02,2.746,6.409,2.756l1.206-1.092c-3.018-.108-6.3-1.988-6.3-4.453v-.989c0-.148-.181-.184-.18-.184l-2.609-.231v1.4c0,2.464-3.28,4.345-6.3,4.453l1.206,1.092C329.679,204.167,332.895,203.038,333.673,201.423Z"/><path class="a" d="M422.949,208.911c.026.075.064.18.395.18h3.217v1.653h2.767V197.639c0-.145-.18-.18-.179-.18l-2.588-.23V207.81h-3.943C422.712,208.125,422.949,208.909,422.949,208.911Z"/><path class="a" d="M241.307,213.551V209.8c0-.147-.183-.182-.179-.182l-2.591-.23v3.774a1.787,1.787,0,0,0,1.94,1.87H250.6v-1.477Z"/><path class="a" d="M272.391,199.288l6,0v3.806c0,2.115-.032,3.309-.719,4.523h2.351a8.112,8.112,0,0,0,1.138-4.7v-5.109h-9.61c.1.347.379,1.267.379,1.267C271.962,199.165,272.006,199.288,272.391,199.288Z"/><path class="a" d="M249.966,201.351v-3.732c0-.148-.182-.182-.179-.182l-2.591-.231v13.126h2.77v-7.481h2.943v-1.5Z"/><path class="a" d="M393.564,197.5l-2.589-.231v2.8h-2.443V201.5h2.443v1.437h-2.443v1.433h2.443V207.5h2.769V197.68C393.744,197.534,393.562,197.5,393.564,197.5Z"/><path class="a" d="M309.156,199.069c.034.091.076.214.459.214l.485,0h4.516v.458c0,4.651-2.4,7.591-6.756,8.3l1.415,1.032c4.124-.265,8.285-3.622,8.285-9.545v-1.718h-8.781C308.883,198.153,309.156,199.069,309.156,199.069Z"/><path class="a" d="M388.377,207.485c-2.644,0-4.8,1.862-4.8,4.151s2.153,4.132,4.8,4.132,4.8-1.852,4.8-4.132S391.025,207.485,388.377,207.485Zm0,6.763a2.422,2.422,0,0,1-2.072-2.612c0-1.413.968-2.653,2.072-2.653s2.075,1.24,2.075,2.653A2.455,2.455,0,0,1,388.377,214.248Z"/><path class="a" d="M389.578,205.072h-1.812v-5.767h1.681v-1.453h-10.57c.1.341.373,1.241.373,1.241.03.089.075.208.451.208l.122,0h.66v5.767h-1.714c.1.341.372,1.243.372,1.243.032.09.075.212.453.212h9.985Zm-4.536-5.677v5.677h-1.833v-5.767h1.833Z"/><path class="a" d="M410.076,201.329v-3.69c0-.145-.182-.18-.179-.18l-2.59-.23V215.05h2.769V202.808h2.943v-1.478h-2.943Z"/><path class="a" d="M417.725,206.556h.086v2.667h2.771v-2.667H425.1v-1.377H413.83c.1.328.349,1.17.349,1.17.029.081.069.207.423.207h3.123Z"/><path class="a" d="M396.017,197.807c.1.346.377,1.265.377,1.265.032.089.077.213.461.213h5.022v.458c0,4.649-2.406,7.587-6.777,8.3l1.436,1.032c4.11-.265,8.262-3.622,8.262-9.545v-1.718h-8.78Z"/><path class="a" d="M325.8,206.511c.032.089.077.211.454.211h6.126v1.415h-4.573c.1.346.377,1.263.377,1.263.032.089.076.212.459.212l.691,0H337.2v1.263h-9.227v2.3a1.815,1.815,0,0,0,1.963,1.87h10.382v-1.477h-9.576v-1.3h9.227v-4.131h-4.821v-1.415h6.958v-1.455H325.429C325.532,205.608,325.8,206.511,325.8,206.511Z"/><path class="a" d="M343.745,199.069c.033.091.077.214.461.214l.548,0h4.452v.458c0,4.651-2.4,7.591-6.757,8.3l1.415,1.032c4.122-.265,8.285-3.622,8.285-9.545v-1.718h-8.78C343.471,198.153,343.745,199.069,343.745,199.069Z"/><path class="a" d="M375.832,197.617c0-.145-.18-.18-.179-.18l-2.583-.231v9.381l-.057.021a9.808,9.808,0,0,1-3.325.485h-2.115v-1.415l.064-.018a3.467,3.467,0,0,0,2.749-3.178,2.859,2.859,0,0,0-.934-2.089l-.156-.152h2.181v-1.433h-3.9v-.089l-.006-.854v-.446c0-.147-.18-.181-.18-.181l-2.583-.228v1.8h-3.875l.366,1.227c.03.088.074.206.447.206h1.315l-.156.152a2.861,2.861,0,0,0-.933,2.089,3.507,3.507,0,0,0,2.772,3.178l.064.02v1.414h-4.073c.1.336.362,1.207.362,1.207.03.086.074.2.44.2h8.047a8.27,8.27,0,0,0,3.366-.708l.124-.058v1.029h2.77l-.008-10.589Zm-9.656,6.975c-.856,0-1.636-1.005-1.636-2.11s.779-2.11,1.636-2.11a2.178,2.178,0,0,1,0,4.22Z"/><path class="a" d="M323.031,197.459l-2.589-.23V215.05h2.769V197.639C323.211,197.494,323.029,197.459,323.031,197.459Z"/><path class="a" d="M357.618,197.459l-2.59-.23V215.05h2.77V197.639C357.8,197.494,357.616,197.459,357.618,197.459Z"/><path class="a" d="M363.264,211.122c.03.088.075.21.453.21h9.353v3.7h2.77v-5.15H362.891Z"/><path class="a" d="M419.928,213.551h-.087v-2.833c0-.148-.183-.183-.18-.183l-2.591-.228v2.874a1.816,1.816,0,0,0,1.963,1.87h10.294v-1.5Z"/></g></g></svg>